<svg id="visual" viewBox="0 0 1440 200" width="1440" height="200" xmlns="http://www.w3.org/2000/svg" xmlns:xlink="http://www.w3.org/1999/xlink" version="1.1"><g stroke-width="1" stroke-linejoin="bevel"><path d="M665 85L797 92L666 0Z" fill="#8b50af" stroke="#8b50af"></path><path d="M797 92L829 0L666 0Z" fill="#9c60c0" stroke="#9c60c0"></path><path d="M665 85L771 200L797 92Z" fill="#58207c" stroke="#58207c"></path><path d="M797 92L954 102L829 0Z" fill="#68308c" stroke="#68308c"></path><path d="M476 200L633 200L665 85Z" fill="#8b50af" stroke="#8b50af"></path><path d="M665 85L633 200L771 200Z" fill="#37005c" stroke="#37005c"></path><path d="M666 0L513 0L665 85Z" fill="#470f6c" stroke="#470f6c"></path><path d="M771 200L954 102L797 92Z" fill="#37005c" stroke="#37005c"></path><path d="M954 102L959 0L829 0Z" fill="#27004c" stroke="#27004c"></path><path d="M513 0L445 76L665 85Z" fill="#000000" stroke="#000000"></path><path d="M771 200L981 200L954 102Z" fill="#37005c" stroke="#37005c"></path><path d="M954 102L1087 0L959 0Z" fill="#58207c" stroke="#58207c"></path><path d="M445 76L476 200L665 85Z" fill="#470f6c" stroke="#470f6c"></path><path d="M1137 134L1087 0L954 102Z" fill="#68308c" stroke="#68308c"></path><path d="M445 76L355 200L476 200Z" fill="#68308c" stroke="#68308c"></path><path d="M981 200L1137 134L954 102Z" fill="#000000" stroke="#000000"></path><path d="M289 0L309 61L445 76Z" fill="#58207c" stroke="#58207c"></path><path d="M445 76L309 61L355 200Z" fill="#58207c" stroke="#58207c"></path><path d="M981 200L1141 200L1137 134Z" fill="#000000" stroke="#000000"></path><path d="M513 0L289 0L445 76Z" fill="#37005c" stroke="#37005c"></path><path d="M1248 74L1245 0L1087 0Z" fill="#8b50af" stroke="#8b50af"></path><path d="M1248 74L1087 0L1137 134Z" fill="#68308c" stroke="#68308c"></path><path d="M1141 200L1248 74L1137 134Z" fill="#37005c" stroke="#37005c"></path><path d="M289 0L194 77L309 61Z" fill="#68308c" stroke="#68308c"></path><path d="M309 61L187 200L355 200Z" fill="#9c60c0" stroke="#9c60c0"></path><path d="M194 77L187 200L309 61Z" fill="#79409d" stroke="#79409d"></path><path d="M1141 200L1314 200L1248 74Z" fill="#27004c" stroke="#27004c"></path><path d="M1248 74L1440 0L1245 0Z" fill="#58207c" stroke="#58207c"></path><path d="M289 0L133 0L194 77Z" fill="#9c60c0" stroke="#9c60c0"></path><path d="M194 77L0 72L187 200Z" fill="#8b50af" stroke="#8b50af"></path><path d="M1440 139L1440 0L1248 74Z" fill="#ae70d2" stroke="#ae70d2"></path><path d="M1314 200L1440 139L1248 74Z" fill="#ae70d2" stroke="#ae70d2"></path><path d="M1314 200L1440 200L1440 139Z" fill="#27004c" stroke="#27004c"></path><path d="M133 0L0 72L194 77Z" fill="#ae70d2" stroke="#ae70d2"></path><path d="M133 0L0 0L0 72Z" fill="#27004c" stroke="#27004c"></path><path d="M0 72L0 200L187 200Z" fill="#ae70d2" stroke="#ae70d2"></path></g></svg>