<svg id="visual" viewBox="0 0 1440 200" width="1440" height="200" xmlns="http://www.w3.org/2000/svg" xmlns:xlink="http://www.w3.org/1999/xlink" version="1.1"><path d="M0 27L21.8 26.7C43.7 26.3 87.3 25.7 131 29C174.7 32.3 218.3 39.7 262 43.7C305.7 47.7 349.3 48.3 393 49.3C436.7 50.3 480.3 51.7 524 51C567.7 50.3 611.3 47.7 654.8 44.7C698.3 41.7 741.7 38.3 785.2 40.3C828.7 42.3 872.3 49.7 916 51.7C959.7 53.7 1003.3 50.3 1047 46.3C1090.7 42.3 1134.3 37.7 1178 38.7C1221.7 39.7 1265.3 46.3 1309 46.3C1352.7 46.3 1396.3 39.7 1418.2 36.3L1440 33L1440 0L1418.2 0C1396.3 0 1352.7 0 1309 0C1265.3 0 1221.7 0 1178 0C1134.3 0 1090.7 0 1047 0C1003.3 0 959.7 0 916 0C872.3 0 828.7 0 785.2 0C741.7 0 698.3 0 654.8 0C611.3 0 567.7 0 524 0C480.3 0 436.7 0 393 0C349.3 0 305.7 0 262 0C218.3 0 174.7 0 131 0C87.3 0 43.7 0 21.8 0L0 0Z" fill="#8a67bd"></path><path d="M0 61L21.8 57.3C43.7 53.7 87.3 46.3 131 49.7C174.7 53 218.3 67 262 71.3C305.7 75.7 349.3 70.3 393 69.3C436.7 68.3 480.3 71.7 524 73.7C567.7 75.7 611.3 76.3 654.8 74C698.3 71.7 741.7 66.3 785.2 66.7C828.7 67 872.3 73 916 75C959.7 77 1003.3 75 1047 70C1090.7 65 1134.3 57 1178 59.3C1221.7 61.7 1265.3 74.3 1309 76C1352.7 77.7 1396.3 68.3 1418.2 63.7L1440 59L1440 31L1418.2 34.3C1396.3 37.7 1352.7 44.3 1309 44.3C1265.3 44.3 1221.7 37.7 1178 36.7C1134.3 35.7 1090.7 40.3 1047 44.3C1003.3 48.3 959.7 51.7 916 49.7C872.3 47.7 828.7 40.3 785.2 38.3C741.7 36.3 698.3 39.7 654.8 42.7C611.3 45.7 567.7 48.3 524 49C480.3 49.7 436.7 48.3 393 47.3C349.3 46.3 305.7 45.7 262 41.7C218.3 37.7 174.7 30.3 131 27C87.3 23.7 43.7 24.3 21.8 24.7L0 25Z" fill="#764eb0"></path><path d="M0 111L21.8 109.7C43.7 108.3 87.3 105.7 131 110.3C174.7 115 218.3 127 262 131.3C305.7 135.7 349.3 132.3 393 130.3C436.7 128.3 480.3 127.7 524 129C567.7 130.3 611.3 133.7 654.8 132C698.3 130.3 741.7 123.7 785.2 122.7C828.7 121.7 872.3 126.3 916 127.3C959.7 128.3 1003.3 125.7 1047 120.7C1090.7 115.7 1134.3 108.3 1178 106.3C1221.7 104.3 1265.3 107.7 1309 110.3C1352.7 113 1396.3 115 1418.2 116L1440 117L1440 57L1418.2 61.7C1396.3 66.3 1352.7 75.7 1309 74C1265.3 72.3 1221.7 59.7 1178 57.3C1134.3 55 1090.7 63 1047 68C1003.3 73 959.7 75 916 73C872.3 71 828.7 65 785.2 64.7C741.7 64.3 698.3 69.7 654.8 72C611.3 74.3 567.7 73.7 524 71.7C480.3 69.7 436.7 66.3 393 67.3C349.3 68.3 305.7 73.7 262 69.3C218.3 65 174.7 51 131 47.7C87.3 44.3 43.7 51.7 21.8 55.3L0 59Z" fill="#6135a3"></path><path d="M0 135L21.8 134.3C43.7 133.7 87.3 132.3 131 137C174.7 141.7 218.3 152.3 262 159C305.7 165.7 349.3 168.3 393 167C436.7 165.7 480.3 160.3 524 160.7C567.7 161 611.3 167 654.8 165C698.3 163 741.7 153 785.2 149.3C828.7 145.7 872.3 148.3 916 150C959.7 151.7 1003.3 152.3 1047 148.7C1090.7 145 1134.3 137 1178 132.3C1221.7 127.7 1265.3 126.3 1309 127.7C1352.7 129 1396.3 133 1418.2 135L1440 137L1440 115L1418.2 114C1396.3 113 1352.7 111 1309 108.3C1265.3 105.7 1221.7 102.3 1178 104.3C1134.3 106.3 1090.7 113.7 1047 118.7C1003.3 123.7 959.7 126.3 916 125.3C872.3 124.3 828.7 119.7 785.2 120.7C741.7 121.7 698.3 128.3 654.8 130C611.3 131.7 567.7 128.3 524 127C480.3 125.7 436.7 126.3 393 128.3C349.3 130.3 305.7 133.7 262 129.3C218.3 125 174.7 113 131 108.3C87.3 103.7 43.7 106.3 21.8 107.7L0 109Z" fill="#532f8d"></path><path d="M0 201L21.8 201C43.7 201 87.3 201 131 201C174.7 201 218.3 201 262 201C305.7 201 349.3 201 393 201C436.7 201 480.3 201 524 201C567.7 201 611.3 201 654.8 201C698.3 201 741.7 201 785.2 201C828.7 201 872.3 201 916 201C959.7 201 1003.3 201 1047 201C1090.7 201 1134.3 201 1178 201C1221.7 201 1265.3 201 1309 201C1352.7 201 1396.3 201 1418.2 201L1440 201L1440 135L1418.2 133C1396.3 131 1352.7 127 1309 125.7C1265.3 124.3 1221.7 125.7 1178 130.3C1134.3 135 1090.7 143 1047 146.7C1003.3 150.3 959.7 149.7 916 148C872.3 146.3 828.7 143.7 785.2 147.3C741.7 151 698.3 161 654.8 163C611.3 165 567.7 159 524 158.7C480.3 158.3 436.7 163.7 393 165C349.3 166.3 305.7 163.7 262 157C218.3 150.3 174.7 139.7 131 135C87.3 130.3 43.7 131.7 21.8 132.3L0 133Z" fill="#462878"></path></svg>